<svg xmlns="http://www.w3.org/2000/svg" width="220" height="140" viewBox="0 0 220 140" fill="none" role="img" aria-label="Red Bull Ring track outline">
  <path d="M30 84c15-17 24-37 42-48 17-11 34-7 48 4 8 6 16 10 29 7 11-2 23 3 29 13 8 13 2 28-12 34-16 7-33 4-48 14-12 8-26 20-44 17-21-4-32-25-44-41Z" stroke="#ef2b2d" stroke-width="9" stroke-linecap="round" stroke-linejoin="round"/>
  <path d="M30 84c15-17 24-37 42-48 17-11 34-7 48 4 8 6 16 10 29 7 11-2 23 3 29 13 8 13 2 28-12 34-16 7-33 4-48 14-12 8-26 20-44 17-21-4-32-25-44-41Z" stroke="#fff" stroke-width="4" stroke-linecap="round" stroke-linejoin="round"/>
</svg>
